<?xml version="1.0" standalone="no"?>
<!DOCTYPE svg PUBLIC "-//W3C//DTD SVG 20010904//EN"
 "http://www.w3.org/TR/2001/REC-SVG-20010904/DTD/svg10.dtd">
<svg version="1.0" xmlns="http://www.w3.org/2000/svg"
 width="1754.000000pt" height="1241.000000pt" viewBox="0 0 1754.000000 1241.000000"
 preserveAspectRatio="xMidYMid meet">

<g transform="translate(0.000000,1241.000000) scale(0.100000,-0.100000)"
fill="#000000" stroke="none">
<path d="M5572 5109 c-210 -26 -392 -155 -554 -391 -54 -78 -55 -73 -34 138 9
87 16 170 16 186 l0 28 -173 0 -172 0 -219 -1092 c-121 -601 -221 -1103 -224
-1115 l-4 -23 224 0 225 0 26 133 c14 72 58 296 97 497 76 390 112 539 160
669 38 105 109 245 162 324 57 85 163 189 223 219 172 87 327 42 370 -107 34
-114 21 -204 -140 -1005 -80 -399 -145 -726 -145 -727 0 -2 100 -3 223 -3
l223 0 27 133 c14 72 62 315 106 538 101 508 132 619 224 804 89 180 215 322
335 378 129 60 273 35 327 -57 40 -68 50 -141 36 -254 -9 -79 -280 -1465 -297
-1524 -5 -17 10 -18 219 -18 l225 0 5 23 c27 115 279 1402 287 1467 15 127 13
310 -6 393 -33 149 -125 281 -232 336 -98 50 -283 69 -403 41 -184 -43 -376
-186 -507 -377 -56 -83 -72 -98 -72 -66 0 36 -34 151 -61 209 -35 74 -103 153
-162 187 -84 49 -215 71 -335 56z"/>
<path d="M8635 5113 c-358 -27 -648 -231 -842 -593 -93 -174 -170 -428 -193
-637 -18 -163 -8 -425 19 -528 80 -299 278 -486 575 -542 61 -12 121 -14 246
-10 220 7 352 37 541 124 l79 36 0 188 c0 104 -1 189 -3 189 -2 0 -32 -14 -67
-31 -98 -47 -200 -86 -292 -111 -67 -18 -110 -22 -218 -22 -161 0 -218 17
-300 91 -95 85 -140 213 -140 401 l0 102 108 0 c300 0 583 55 774 150 107 53
163 93 236 168 109 112 169 251 179 418 17 272 -102 473 -331 559 -93 35 -260
57 -371 48z m174 -394 c66 -37 96 -95 96 -189 0 -60 -5 -86 -26 -130 -66 -138
-228 -227 -484 -265 -130 -19 -295 -20 -295 -2 0 19 43 142 74 210 84 188 259
361 402 396 69 18 184 8 233 -20z"/>
<path d="M10314 5109 c-176 -15 -350 -91 -474 -206 -68 -63 -154 -187 -193
-281 -61 -144 -85 -399 -53 -554 27 -123 94 -234 186 -307 l49 -39 -52 -27
c-71 -38 -179 -119 -216 -161 -17 -19 -43 -58 -59 -87 -24 -47 -27 -62 -27
-157 0 -96 2 -109 27 -151 15 -25 43 -60 63 -77 38 -34 42 -42 23 -42 -25 0
-222 -101 -282 -144 -33 -24 -83 -68 -111 -97 l-50 -54 207 -3 207 -2 53 40
c60 45 147 83 234 101 50 10 86 9 219 -5 246 -27 370 -61 419 -115 18 -20 28
-21 248 -21 l228 0 0 28 c0 15 -7 54 -15 85 -60 231 -237 344 -624 397 -341
48 -395 61 -431 108 -23 29 -26 88 -6 135 17 42 77 94 141 123 46 21 57 22
139 13 108 -11 260 2 364 31 278 78 473 293 534 588 26 130 22 357 -9 444
l-20 57 51 10 c28 6 103 20 166 31 63 12 122 23 131 26 12 3 23 40 43 132 14
70 26 130 26 135 0 4 -156 7 -346 7 -299 0 -359 3 -442 19 -121 24 -231 30
-348 20z m213 -334 c48 -20 79 -50 106 -100 20 -36 22 -56 22 -180 0 -158 -15
-233 -71 -350 -40 -86 -119 -168 -193 -203 -108 -50 -243 -29 -318 48 -50 52
-68 116 -67 245 2 335 189 580 426 560 32 -3 75 -12 95 -20z"/>
<path d="M12245 5110 c-370 -44 -685 -389 -837 -915 -60 -206 -73 -314 -72
-595 0 -232 2 -262 22 -334 69 -249 222 -416 420 -457 92 -19 253 -7 340 25
157 58 287 158 419 320 18 22 34 38 36 35 3 -2 -4 -71 -14 -154 -10 -82 -18
-160 -18 -173 l-1 -22 173 2 172 3 217 1080 c119 594 219 1095 223 1113 l6 32
-176 0 c-133 0 -175 -3 -175 -12 -1 -24 -105 -291 -115 -295 -6 -1 -23 23 -40
54 -64 123 -182 228 -300 268 -41 14 -197 38 -215 34 -3 -1 -32 -5 -65 -9z
m282 -416 c147 -71 206 -230 184 -491 -27 -309 -120 -579 -272 -784 -243 -328
-582 -313 -649 29 -20 98 -7 359 24 508 44 210 121 402 211 529 51 72 138 158
193 191 97 58 213 65 309 18z"/>
<path d="M7112 2597 c-18 -18 -32 -36 -32 -40 0 -15 25 -6 51 19 l27 26 14
-21 c12 -19 38 -29 38 -15 0 17 -37 64 -50 64 -9 0 -30 -15 -48 -33z"/>
<path d="M10741 2595 c-35 -52 -17 -56 32 -7 40 40 41 42 17 42 -17 0 -32 -11
-49 -35z"/>
<path d="M7099 2530 c-73 -22 -127 -101 -136 -200 -7 -71 22 -142 68 -165 68
-36 171 -8 217 59 45 65 56 178 25 243 -26 56 -104 85 -174 63z m97 -36 c94
-45 74 -248 -30 -298 -56 -26 -93 -21 -133 19 -35 35 -35 36 -31 109 3 64 8
81 34 118 19 27 43 47 64 55 47 16 56 16 96 -3z"/>
<path d="M7836 2530 c-76 -23 -125 -108 -126 -216 0 -111 45 -164 140 -164 54
0 102 27 130 72 25 42 25 58 0 58 -11 0 -20 -7 -20 -15 0 -8 -13 -29 -29 -47
-26 -29 -35 -33 -80 -33 -42 0 -55 5 -78 28 -26 25 -28 34 -28 100 1 134 79
214 181 185 29 -8 39 -17 52 -49 16 -41 42 -53 42 -19 0 79 -91 128 -184 100z"/>
<path d="M8156 2530 c-123 -37 -177 -257 -85 -346 27 -26 37 -29 97 -29 83 0
119 22 156 97 33 66 37 175 7 224 -33 53 -103 75 -175 54z m121 -46 c47 -30
56 -144 16 -220 -43 -83 -134 -109 -195 -55 -27 24 -32 36 -36 89 -4 53 0 70
23 118 22 45 36 60 69 75 44 20 84 18 123 -7z"/>
<path d="M8462 2529 c-43 -13 -75 -62 -68 -108 7 -47 31 -69 94 -87 30 -9 63
-25 73 -35 33 -33 23 -81 -22 -104 -64 -34 -140 -6 -152 55 -7 34 -37 42 -37
10 0 -34 28 -79 60 -95 16 -8 50 -15 75 -15 84 0 125 39 125 119 0 47 -17 63
-95 92 -78 29 -85 35 -85 75 0 25 7 38 27 51 55 37 143 10 143 -44 0 -17 6
-23 21 -23 19 0 21 4 15 32 -8 40 -23 58 -63 75 -37 15 -64 15 -111 2z"/>
<path d="M9544 2529 c-74 -21 -127 -111 -128 -214 -1 -112 44 -165 141 -165
61 0 106 27 133 79 25 49 25 51 0 51 -11 0 -20 -7 -20 -15 0 -28 -53 -75 -92
-82 -78 -12 -128 36 -128 125 0 133 81 219 181 192 33 -9 48 -26 63 -72 3 -10
13 -18 22 -18 13 0 15 6 10 32 -15 75 -94 113 -182 87z"/>
<path d="M10084 2526 c-40 -18 -64 -52 -64 -92 0 -48 32 -80 106 -104 51 -17
67 -28 76 -49 19 -50 -30 -101 -100 -101 -39 0 -92 46 -92 79 0 12 -6 21 -15
21 -27 0 -18 -56 14 -92 28 -31 33 -33 100 -33 63 0 73 3 97 26 18 18 28 41
31 72 5 40 2 49 -20 69 -14 13 -51 32 -81 41 -66 21 -92 51 -77 89 14 37 38
51 88 51 50 0 83 -26 83 -64 0 -12 7 -19 20 -19 17 0 19 4 14 28 -11 46 -24
63 -59 78 -42 17 -81 17 -121 0z"/>
<path d="M10361 2523 c-59 -29 -77 -116 -32 -157 9 -9 44 -25 76 -36 32 -11
64 -25 71 -31 15 -12 18 -46 8 -74 -9 -22 -57 -45 -96 -45 -44 0 -74 22 -88
65 -13 38 -40 48 -40 15 0 -34 28 -79 60 -95 37 -19 113 -19 149 0 49 25 71
117 36 155 -9 10 -44 28 -78 41 -77 28 -87 35 -87 66 0 38 17 61 54 71 60 17
109 -5 118 -53 2 -11 12 -21 22 -23 16 -4 18 0 12 29 -8 41 -23 59 -63 76 -43
17 -81 16 -122 -4z"/>
<path d="M10684 2530 c-36 -11 -90 -68 -110 -116 -8 -19 -14 -64 -14 -102 0
-76 23 -125 70 -150 38 -20 130 -11 168 17 101 71 117 278 27 337 -31 20 -99
27 -141 14z m89 -31 c52 -14 77 -57 77 -130 0 -144 -132 -240 -221 -161 -75
67 -35 244 66 288 37 16 32 16 78 3z"/>
<path d="M11395 2526 c-76 -34 -119 -110 -120 -211 0 -111 46 -165 140 -165
109 0 183 90 184 225 1 41 -5 72 -17 94 -34 62 -118 88 -187 57z m111 -32 c94
-45 74 -248 -30 -298 -56 -26 -93 -21 -133 19 -35 35 -35 36 -31 109 3 64 8
81 34 118 19 27 43 47 64 55 47 16 56 16 96 -3z"/>
<path d="M11704 2526 c-40 -18 -64 -52 -64 -92 0 -48 32 -80 105 -104 87 -29
106 -64 62 -115 -16 -20 -35 -28 -69 -32 -42 -5 -50 -3 -78 25 -16 17 -30 40
-30 51 0 12 -6 21 -15 21 -26 0 -18 -56 14 -92 25 -29 35 -32 95 -36 64 -4 67
-3 101 31 28 28 35 43 35 74 0 56 -21 78 -95 103 -75 25 -101 53 -86 92 14 37
38 51 88 51 50 0 83 -26 83 -64 0 -12 7 -19 20 -19 17 0 19 4 14 28 -11 46
-24 63 -59 78 -42 17 -81 17 -121 0z"/>
<path d="M5726 2513 c-7 -25 -66 -330 -66 -343 0 -16 232 -9 238 8 3 9 -21 12
-98 12 l-102 0 6 33 c4 17 9 49 13 70 l6 37 93 0 c77 0 94 3 94 15 0 12 -16
15 -83 15 -46 0 -86 2 -89 5 -2 3 0 33 7 67 l11 63 102 3 c82 2 102 6 102 17
0 12 -21 15 -114 15 -101 0 -115 -2 -120 -17z"/>
<path d="M5985 2518 c-2 -7 -18 -85 -35 -173 -17 -88 -33 -166 -35 -172 -3
-10 23 -13 110 -13 96 0 115 3 115 15 0 12 -17 15 -94 15 l-93 0 28 143 c16
78 32 154 35 170 4 21 2 27 -11 27 -8 0 -18 -6 -20 -12z"/>
<path d="M6190 2358 c-18 -95 -35 -179 -37 -185 -4 -10 23 -13 116 -13 101 0
121 2 121 15 0 12 -18 15 -101 15 -91 0 -100 2 -95 18 2 9 7 33 11 52 13 73 8
69 107 72 62 2 93 7 96 16 3 9 -19 12 -87 12 -102 0 -97 -5 -80 83 l12 57 148
0 c135 0 149 -2 149 -17 0 -10 -14 -85 -30 -167 -17 -82 -28 -151 -26 -154 18
-18 34 19 54 124 13 66 28 140 34 167 l10 47 59 0 c46 0 59 3 59 15 0 13 -34
15 -243 15 l-244 0 -33 -172z"/>
<path d="M6725 2508 c-13 -57 -65 -323 -65 -335 0 -19 28 -16 34 5 3 9 10 45
17 80 l12 62 73 0 c87 0 94 -7 94 -99 0 -48 3 -61 15 -61 12 0 15 15 15 73 0
45 -5 78 -12 86 -11 11 -10 14 0 18 45 17 70 83 52 136 -14 45 -44 57 -145 57
-79 0 -85 -1 -90 -22z m189 -24 c18 -17 21 -66 6 -94 -13 -25 -62 -40 -132
-40 l-60 0 6 28 c3 15 8 45 12 67 4 22 9 43 11 48 2 4 35 7 73 7 49 0 73 -4
84 -16z"/>
<path d="M7355 2518 c-2 -7 -19 -91 -38 -185 -31 -156 -33 -173 -17 -173 14 0
22 26 45 148 15 81 30 150 34 155 4 4 36 -62 71 -148 54 -131 67 -155 85 -155
19 0 24 15 57 183 20 100 34 184 32 186 -2 2 -9 1 -17 -2 -9 -3 -24 -59 -42
-156 -16 -83 -32 -151 -36 -151 -4 0 -35 70 -70 155 -49 120 -67 155 -81 155
-10 0 -21 -6 -23 -12z"/>
<path d="M7675 2518 c-12 -38 -66 -332 -63 -348 10 -64 46 61 92 323 6 30 4
37 -9 37 -9 0 -18 -6 -20 -12z"/>
<path d="M8815 2518 c-6 -21 -65 -332 -65 -346 0 -10 28 -12 115 -10 141 4
155 22 20 26 -106 3 -101 -2 -84 85 l12 57 93 0 c77 0 94 3 94 15 0 12 -16 15
-84 15 -47 0 -87 3 -90 8 -2 4 1 34 8 67 l12 60 102 3 c82 2 102 6 102 17 0
12 -21 15 -115 15 -84 0 -117 -3 -120 -12z"/>
<path d="M9220 2413 c-36 -64 -82 -147 -103 -185 -35 -62 -37 -68 -18 -68 14
0 28 16 48 53 l28 52 80 0 c63 0 80 -3 82 -15 9 -74 15 -90 31 -90 16 0 15 14
-12 185 -38 235 -42 237 -136 68z m94 -18 c4 -33 9 -68 12 -77 5 -16 -3 -18
-60 -18 -36 0 -66 2 -66 6 0 3 21 45 48 94 51 97 54 96 66 -5z"/>
<path d="M9790 2527 c0 -2 -13 -69 -29 -148 -16 -79 -32 -161 -35 -181 l-7
-38 121 0 c100 0 120 2 120 15 0 12 -18 15 -100 15 -55 0 -100 3 -100 8 1 4 6
34 13 67 l13 60 91 3 c69 2 93 6 97 17 4 13 -10 15 -86 15 l-91 0 7 54 c10 89
5 86 117 86 81 0 99 3 99 15 0 12 -19 15 -115 15 -63 0 -115 -2 -115 -3z"/>
<path d="M10950 2526 c0 -2 -16 -84 -35 -182 -19 -98 -33 -180 -30 -182 2 -3
10 -2 18 1 8 3 19 36 27 81 l13 76 71 0 c43 0 77 -5 84 -12 7 -7 12 -40 12
-80 0 -58 3 -68 18 -68 14 0 17 10 17 68 0 37 -6 77 -12 89 -11 19 -10 22 7
28 31 10 53 61 47 109 -9 64 -32 76 -143 76 -52 0 -94 -2 -94 -4z m185 -40
c26 -19 24 -82 -4 -110 -18 -17 -36 -22 -102 -25 -75 -3 -81 -2 -76 15 3 11
11 45 17 77 l11 57 68 0 c41 0 74 -5 86 -14z"/>
<path d="M11211 2363 c-18 -93 -34 -176 -37 -185 -4 -13 0 -18 13 -18 16 0 23
23 52 173 19 94 36 178 39 185 2 7 -4 12 -16 12 -18 0 -23 -18 -51 -167z"/>
<path d="M9182 2071 c59 -75 204 -156 341 -191 222 -56 577 -47 827 21 95 26
283 117 335 163 l40 35 -783 1 -783 0 23 -29z"/>
</g>
</svg>
